<svg xmlns="http://www.w3.org/2000/svg" xmlns:xlink="http://www.w3.org/1999/xlink">
  <defs>
    <path id="rep0" d="m 0,0 -5.197,-8.996 h -20.77 L -31.165,0 -40.161,-5.197 -49.157,0 l 5.198,8.996 h 10.385 v 10.385 l 8.996,5.197 5.197,-8.996 H -8.996 V 5.197 Z" style="fill:none;fill-opacity:1;fill-rule:nonzero;stroke:#231f20;stroke-width:0.99975002;stroke-linecap:butt;stroke-linejoin:miter;stroke-miterlimit:10;stroke-dasharray:none;stroke-opacity:1"/>
    <path id="rep1" d="m 0,0 h 10.385 l 10.385,-17.992 -5.188,-8.996 9,-5.188 V -42.571 H 14.184 L 8.996,-33.575 0,-38.762 l -8.996,5.187 5.188,8.997 -5.188,8.996 8.996,5.197 z" style="fill:none;fill-opacity:1;fill-rule:nonzero;stroke:#231f20;stroke-width:0.99975002;stroke-linecap:butt;stroke-linejoin:miter;stroke-miterlimit:10;stroke-dasharray:none;stroke-opacity:1"/>
    <path id="rep2" d="M 0,0 -5.197,8.996 5.197,26.988 h 10.385 v 10.385 l 8.996,5.198 5.188,-8.996 -5.188,-8.997 9,-5.197 V 8.996 H 23.18 L 17.992,0 8.996,5.197 Z" style="fill:none;fill-opacity:1;fill-rule:nonzero;stroke:#231f20;stroke-width:0.99975002;stroke-linecap:butt;stroke-linejoin:miter;stroke-miterlimit:10;stroke-dasharray:none;stroke-opacity:1"/>
    <path id="rep3" d="M 0,0 5.197,-8.996 -5.197,-26.988 h -10.385 v -10.385 l -8.996,-5.198 -5.188,8.997 5.188,8.996 -8.996,5.197 v 10.385 h 10.381 L -17.992,0 -8.996,-5.197 Z" style="fill:none;fill-opacity:1;fill-rule:nonzero;stroke:#231f20;stroke-width:0.99975002;stroke-linecap:butt;stroke-linejoin:miter;stroke-miterlimit:10;stroke-dasharray:none;stroke-opacity:1"/>
    <path id="rep4" d="m 0,0 5.197,8.996 h 20.77 L 31.165,0 40.164,5.188 49.16,0 43.96,-8.996 H 33.574 v -10.385 l -8.996,-5.197 -5.197,8.996 H 8.996 v 10.385 z" style="fill:none;fill-opacity:1;fill-rule:nonzero;stroke:#231f20;stroke-width:0.99975002;stroke-linecap:butt;stroke-linejoin:miter;stroke-miterlimit:10;stroke-dasharray:none;stroke-opacity:1"/>
    <path id="rep5" d="m 0,0 h -10.385 l -10.385,17.992 5.188,8.996 -9,5.201 v 10.385 h 10.398 L -8.996,33.575 0,38.762 8.996,33.575 3.799,24.578 8.996,15.582 0,10.385 Z" style="fill:none;fill-opacity:1;fill-rule:nonzero;stroke:#231f20;stroke-width:0.99975002;stroke-linecap:butt;stroke-linejoin:miter;stroke-miterlimit:10;stroke-dasharray:none;stroke-opacity:1"/>
    <path id="rep6" d="m 0,0 -8.988,-5.199 -17.998,10.392 0.008,10.383 -10.393,-0.002 -5.192,9 8.991,5.197 8.994,-5.193 5.192,8.994 10.39,0.003 0.003,-10.39 L 0,17.993 -5.192,8.999 Z" style="fill:none;stroke:#231f20;stroke-width:0.99975002;stroke-linecap:butt;stroke-linejoin:miter;stroke-miterlimit:10;stroke-dasharray:none;stroke-opacity:1" clip-path="none"/>
    <path id="rep7" d="m 0,0 8.988,5.199 17.998,-10.392 -0.008,-10.383 10.393,0.002 5.192,-9 -8.991,-5.197 -8.994,5.193 -5.192,-8.994 -10.39,-0.003 -0.003,10.39 -8.993,5.192 5.192,8.994 z" style="fill:none;fill-opacity:1;fill-rule:nonzero;stroke:#231f20;stroke-width:0.99975002;stroke-linecap:butt;stroke-linejoin:miter;stroke-miterlimit:10;stroke-dasharray:none;stroke-opacity:1;paint-order:stroke fill markers" clip-path="none"/>
    <path id="rep8" d="M 0,0 -8.996,5.184 V 25.967 L 0,31.152 -5.197,40.151 0,49.147 8.996,43.959 V 33.574 h 10.385 l 5.197,-8.996 -8.996,-5.197 V 8.996 H 5.197 Z" style="fill:none;fill-opacity:1;fill-rule:nonzero;stroke:#231f20;stroke-width:0.99975002;stroke-linecap:butt;stroke-linejoin:miter;stroke-miterlimit:10;stroke-dasharray:none;stroke-opacity:1"/>
    <path id="rep9" d="M 0,0 8.996,-5.184 V -25.967 L 0,-31.152 5.197,-40.151 0,-49.147 l -8.996,5.188 v 10.385 h -10.385 l -5.197,8.996 8.996,5.197 v 10.385 h 10.385 z" style="fill:none;fill-opacity:1;fill-rule:nonzero;stroke:#231f20;stroke-width:0.99975002;stroke-linecap:butt;stroke-linejoin:miter;stroke-miterlimit:10;stroke-dasharray:none;stroke-opacity:1"/>
    <path id="rep10" d="m 0,0 -0.008,10.383 17.998,10.392 8.988,-5.199 5.195,9.001 10.39,-0.003 0.005,-10.385 -8.994,-5.193 5.193,-8.993 -5.192,-8.999 -8.999,5.192 -8.994,-5.193 -5.193,8.994 z" style="fill:none;fill-opacity:1;fill-rule:nonzero;stroke:#231f20;stroke-width:0.99975002;stroke-linecap:butt;stroke-linejoin:miter;stroke-miterlimit:10;stroke-dasharray:none;stroke-opacity:1"/>
    <path id="rep11" d="m 0,0 0.008,-10.383 -17.998,-10.392 -8.988,5.199 -5.195,-9.001 -10.39,0.003 -0.005,10.385 8.994,5.193 -5.193,8.993 5.192,8.999 8.999,-5.192 8.994,5.193 5.193,-8.994 z" style="fill:none;fill-opacity:1;fill-rule:nonzero;stroke:#231f20;stroke-width:0.99975002;stroke-linecap:butt;stroke-linejoin:miter;stroke-miterlimit:10;stroke-dasharray:none;stroke-opacity:1"/>
  </defs>

  <use xlink:href="#rep0" transform="matrix(1.3333333,0,0,-1.3333333,729.7188,-11.360933)" />
  <use xlink:href="#rep0" transform="matrix(1.3333333,0,0,-1.3333333,598.6424,6.2026667)" />
  <use xlink:href="#rep0" transform="matrix(1.3333333,0,0,-1.3333333,476.33493,-9.0050667)" />
  <use xlink:href="#rep0" transform="matrix(1.3333333,0,0,-1.3333333,679.37973,110.9336)" />
  <use xlink:href="#rep0" transform="matrix(1.3333333,0,0,-1.3333333,557.08933,95.725867)" />
  <use xlink:href="#rep0" transform="matrix(1.3333333,0,0,-1.3333333,345.25867,8.5413333)" />
  <use xlink:href="#rep0" transform="matrix(1.3333333,0,0,-1.3333333,548.3076,128.4972)" />
  <use xlink:href="#rep0" transform="matrix(1.3333333,0,0,-1.3333333,426.0132,113.28947)" />
  <use xlink:href="#rep0" transform="matrix(1.3333333,0,0,-1.3333333,605.06827,209.2516)" />
  <use xlink:href="#rep0" transform="matrix(1.3333333,0,0,-1.3333333,727.36293,224.44213)" />
  <use xlink:href="#rep0" transform="matrix(1.3333333,0,0,-1.3333333,473.99627,226.798)" />
  <use xlink:href="#rep0" transform="matrix(1.3333333,0,0,-1.3333333,303.7056,98.0776)" />
  <use xlink:href="#rep0" transform="matrix(1.3333333,0,0,-1.3333333,214.18667,26.109067)" />
  <use xlink:href="#rep0" transform="matrix(1.3333333,0,0,-1.3333333,222.9684,-6.6664)" />
  <use xlink:href="#rep0" transform="matrix(1.3333333,0,0,-1.3333333,384.46013,202.80853)" />
  <use xlink:href="#rep0" transform="matrix(1.3333333,0,0,-1.3333333,294.94107,130.85307)" />
  <use xlink:href="#rep0" transform="matrix(1.3333333,0,0,-1.3333333,685.80987,313.9784)" />
  <use xlink:href="#rep0" transform="matrix(1.3333333,0,0,-1.3333333,554.73347,331.54187)" />
  <use xlink:href="#rep0" transform="matrix(1.3333333,0,0,-1.3333333,375.67827,235.57973)" />
  <use xlink:href="#rep0" transform="matrix(1.3333333,0,0,-1.3333333,91.892133,10.8972)" />
  <use xlink:href="#rep0" transform="matrix(1.3333333,0,0,-1.3333333,677.04093,346.75387)" />
  <use xlink:href="#rep0" transform="matrix(1.3333333,0,0,-1.3333333,432.43893,316.33427)" />
  <use xlink:href="#rep0" transform="matrix(1.3333333,0,0,-1.3333333,163.8476,148.41653)" />
  <use xlink:href="#rep0" transform="matrix(1.3333333,0,0,-1.3333333,172.62933,115.64533)" />
  <use xlink:href="#rep0" transform="matrix(1.3333333,0,0,-1.3333333,423.65733,349.10973)" />
  <use xlink:href="#rep0" transform="matrix(1.3333333,0,0,-1.3333333,301.36693,333.89773)" />
  <use xlink:href="#rep0" transform="matrix(1.3333333,0,0,-1.3333333,635.488,436.27293)" />
  <use xlink:href="#rep0" transform="matrix(1.3333333,0,0,-1.3333333,513.17627,421.06533)" />
  <use xlink:href="#rep0" transform="matrix(1.3333333,0,0,-1.3333333,41.557333,133.20893)" />
  <use xlink:href="#rep0" transform="matrix(1.3333333,0,0,-1.3333333,504.41173,453.83627)" />
  <use xlink:href="#rep0" transform="matrix(1.3333333,0,0,-1.3333333,382.10427,438.6288)" />
  <use xlink:href="#rep0" transform="matrix(1.3333333,0,0,-1.3333333,561.15947,534.59067)" />
  <use xlink:href="#rep0" transform="matrix(1.3333333,0,0,-1.3333333,373.3224,471.39987)" />
  <use xlink:href="#rep0" transform="matrix(1.3333333,0,0,-1.3333333,251.02787,456.1924)" />
  <use xlink:href="#rep0" transform="matrix(1.3333333,0,0,-1.3333333,170.27347,351.4656)" />
  <use xlink:href="#rep0" transform="matrix(1.3333333,0,0,-1.3333333,683.47133,549.7984)" />
  <use xlink:href="#rep0" transform="matrix(1.3333333,0,0,-1.3333333,430.08307,552.15427)" />
  <use xlink:href="#rep0" transform="matrix(1.3333333,0,0,-1.3333333,0,222.72787)" />
  <use xlink:href="#rep0" transform="matrix(1.3333333,0,0,-1.3333333,299.01107,569.7008)" />
  <use xlink:href="#rep0" transform="matrix(1.3333333,0,0,-1.3333333,47.9832,336.2536)" />
  <use xlink:href="#rep0" transform="matrix(1.3333333,0,0,-1.3333333,641.91387,639.3176)" />
  <use xlink:href="#rep0" transform="matrix(1.3333333,0,0,-1.3333333,209.47493,545.72867)" />
  <use xlink:href="#rep0" transform="matrix(1.3333333,0,0,-1.3333333,119.95587,473.75573)" />
  <use xlink:href="#rep0" transform="matrix(1.3333333,0,0,-1.3333333,128.73773,440.98467)" />
  <use xlink:href="#rep0" transform="matrix(1.3333333,0,0,-1.3333333,200.6932,578.48253)" />
  <use xlink:href="#rep0" transform="matrix(1.3333333,0,0,-1.3333333,670.59787,143.70493)" />
  <use xlink:href="#rep0" transform="matrix(1.3333333,0,0,-1.3333333,539.52587,161.2684)" />
  <use xlink:href="#rep0" transform="matrix(1.3333333,0,0,-1.3333333,366.89653,268.3552)" />
  <use xlink:href="#rep0" transform="matrix(1.3333333,0,0,-1.3333333,626.70627,469.044)" />
  <use xlink:href="#rep0" transform="matrix(1.3333333,0,0,-1.3333333,495.62987,486.60747)" />
  <use xlink:href="#rep0" transform="matrix(1.3333333,0,0,-1.3333333,364.54067,504.1756)" />
  <use xlink:href="#rep0" transform="matrix(1.3333333,0,0,-1.3333333,191.91133,611.258)" />
  <use xlink:href="#rep1" transform="matrix(1.3333333,0,0,-1.3333333,643.41267,-47.345067)" />
  <use xlink:href="#rep1" transform="matrix(1.3333333,0,0,-1.3333333,601.85547,42.173867)" />
  <use xlink:href="#rep1" transform="matrix(1.3333333,0,0,-1.3333333,569.08413,50.955733)" />
  <use xlink:href="#rep1" transform="matrix(1.3333333,0,0,-1.3333333,390.02893,-44.9892)" />
  <use xlink:href="#rep1" transform="matrix(1.3333333,0,0,-1.3333333,470.78333,59.737467)" />
  <use xlink:href="#rep1" transform="matrix(1.3333333,0,0,-1.3333333,649.83853,155.6996)" />
  <use xlink:href="#rep1" transform="matrix(1.3333333,0,0,-1.3333333,518.74507,173.2632)" />
  <use xlink:href="#rep1" transform="matrix(1.3333333,0,0,-1.3333333,217.3996,62.093333)" />
  <use xlink:href="#rep1" transform="matrix(1.3333333,0,0,-1.3333333,136.6452,-42.633333)" />
  <use xlink:href="#rep1" transform="matrix(1.3333333,0,0,-1.3333333,298.154,166.83733)" />
  <use xlink:href="#rep1" transform="matrix(1.3333333,0,0,-1.3333333,184.624,70.875067)" />
  <use xlink:href="#rep1" transform="matrix(1.3333333,0,0,-1.3333333,599.49947,277.99413)" />
  <use xlink:href="#rep1" transform="matrix(1.3333333,0,0,-1.3333333,477.20933,262.7864)" />
  <use xlink:href="#rep1" transform="matrix(1.3333333,0,0,-1.3333333,444.43813,271.56813)" />
  <use xlink:href="#rep1" transform="matrix(1.3333333,0,0,-1.3333333,265.37853,175.61907)" />
  <use xlink:href="#rep1" transform="matrix(1.3333333,0,0,-1.3333333,346.11573,280.35)" />
  <use xlink:href="#rep1" transform="matrix(1.3333333,0,0,-1.3333333,167.06053,184.38787)" />
  <use xlink:href="#rep1" transform="matrix(1.3333333,0,0,-1.3333333,86.323333,79.656933)" />
  <use xlink:href="#rep1" transform="matrix(1.3333333,0,0,-1.3333333,5.5688,-25.087067)" />
  <use xlink:href="#rep1" transform="matrix(1.3333333,0,0,-1.3333333,134.30653,193.1696)" />
  <use xlink:href="#rep1" transform="matrix(1.3333333,0,0,-1.3333333,647.4828,391.51987)" />
  <use xlink:href="#rep1" transform="matrix(1.3333333,0,0,-1.3333333,426.87013,385.09387)" />
  <use xlink:href="#rep1" transform="matrix(1.3333333,0,0,-1.3333333,394.09893,393.85853)" />
  <use xlink:href="#rep1" transform="matrix(1.3333333,0,0,-1.3333333,215.04373,297.9136)" />
  <use xlink:href="#rep1" transform="matrix(1.3333333,0,0,-1.3333333,295.79813,402.64027)" />
  <use xlink:href="#rep1" transform="matrix(1.3333333,0,0,-1.3333333,92.7492,282.70587)" />
  <use xlink:href="#rep1" transform="matrix(1.3333333,0,0,-1.3333333,605.92973,481.0388)" />
  <use xlink:href="#rep1" transform="matrix(1.3333333,0,0,-1.3333333,474.85333,498.60667)" />
  <use xlink:href="#rep1" transform="matrix(1.3333333,0,0,-1.3333333,343.77707,516.17013)" />
  <use xlink:href="#rep1" transform="matrix(1.3333333,0,0,-1.3333333,653.90867,594.5688)" />
  <use xlink:href="#rep1" transform="matrix(1.3333333,0,0,-1.3333333,555.59067,603.33347)" />
  <use xlink:href="#rep1" transform="matrix(1.3333333,0,0,-1.3333333,123.1688,509.74427)" />
  <use xlink:href="#rep1" transform="matrix(1.3333333,0,0,-1.3333333,42.4144,404.99613)" />
  <use xlink:href="#rep1" transform="matrix(1.3333333,0,0,-1.3333333,302.22413,605.68933)" />
  <use xlink:href="#rep1" transform="matrix(1.3333333,0,0,-1.3333333,90.393333,518.526)" />
  <use xlink:href="#rep1" transform="matrix(1.3333333,0,0,-1.3333333,-7.9074667,527.30787)" />
  <use xlink:href="#rep1" transform="matrix(1.3333333,0,0,-1.3333333,634.63093,33.392133)" />
  <use xlink:href="#rep1" transform="matrix(1.3333333,0,0,-1.3333333,509.9632,254.00467)" />
  <use xlink:href="#rep1" transform="matrix(1.3333333,0,0,-1.3333333,125.52467,273.924)" />
  <use xlink:href="#rep1" transform="matrix(1.3333333,0,0,-1.3333333,638.70093,472.25707)" />
  <use xlink:href="#rep1" transform="matrix(1.3333333,0,0,-1.3333333,334.99533,596.9076)" />
  <use xlink:href="#rep2" transform="matrix(1.3333333,0,0,-1.3333333,655.40747,45.3868)" />
  <use xlink:href="#rep2" transform="matrix(1.3333333,0,0,-1.3333333,402.0236,47.742667)" />
  <use xlink:href="#rep2" transform="matrix(1.3333333,0,0,-1.3333333,581.07893,143.70493)" />
  <use xlink:href="#rep2" transform="matrix(1.3333333,0,0,-1.3333333,450.00693,161.2684)" />
  <use xlink:href="#rep2" transform="matrix(1.3333333,0,0,-1.3333333,270.94733,65.306267)" />
  <use xlink:href="#rep2" transform="matrix(1.3333333,0,0,-1.3333333,246.95787,41.3168)" />
  <use xlink:href="#rep2" transform="matrix(1.3333333,0,0,-1.3333333,351.68453,170.05027)" />
  <use xlink:href="#rep2" transform="matrix(1.3333333,0,0,-1.3333333,327.69507,146.0608)" />
  <use xlink:href="#rep2" transform="matrix(1.3333333,0,0,-1.3333333,530.74413,265.99933)" />
  <use xlink:href="#rep2" transform="matrix(1.3333333,0,0,-1.3333333,196.6188,163.62427)" />
  <use xlink:href="#rep2" transform="matrix(1.3333333,0,0,-1.3333333,277.3732,268.3552)" />
  <use xlink:href="#rep2" transform="matrix(1.3333333,0,0,-1.3333333,220.61253,187.6008)" />
  <use xlink:href="#rep2" transform="matrix(1.3333333,0,0,-1.3333333,480.42227,388.30693)" />
  <use xlink:href="#rep2" transform="matrix(1.3333333,0,0,-1.3333333,456.4328,364.31733)" />
  <use xlink:href="#rep2" transform="matrix(1.3333333,0,0,-1.3333333,17.5636,67.662133)" />
  <use xlink:href="#rep2" transform="matrix(1.3333333,0,0,-1.3333333,146.284,285.9188)" />
  <use xlink:href="#rep2" transform="matrix(1.3333333,0,0,-1.3333333,89.536267,205.1644)" />
  <use xlink:href="#rep2" transform="matrix(1.3333333,0,0,-1.3333333,65.5468,181.17067)" />
  <use xlink:href="#rep2" transform="matrix(1.3333333,0,0,-1.3333333,537.17,469.044)" />
  <use xlink:href="#rep2" transform="matrix(1.3333333,0,0,-1.3333333,227.0384,390.64547)" />
  <use xlink:href="#rep2" transform="matrix(1.3333333,0,0,-1.3333333,659.47747,484.25613)" />
  <use xlink:href="#rep2" transform="matrix(1.3333333,0,0,-1.3333333,406.09373,486.60747)" />
  <use xlink:href="#rep2" transform="matrix(1.3333333,0,0,-1.3333333,-32.7712,189.95667)" />
  <use xlink:href="#rep2" transform="matrix(1.3333333,0,0,-1.3333333,275.02173,504.1756)" />
  <use xlink:href="#rep2" transform="matrix(1.3333333,0,0,-1.3333333,23.989467,270.71107)" />
  <use xlink:href="#rep2" transform="matrix(1.3333333,0,0,-1.3333333,486.84813,591.33853)" />
  <use xlink:href="#rep2" transform="matrix(1.3333333,0,0,-1.3333333,176.69933,512.95733)" />
  <use xlink:href="#rep2" transform="matrix(1.3333333,0,0,-1.3333333,152.72707,488.96347)" />
  <use xlink:href="#rep2" transform="matrix(1.3333333,0,0,-1.3333333,95.962133,408.20907)" />
  <use xlink:href="#rep2" transform="matrix(1.3333333,0,0,-1.3333333,71.972667,384.2196)" />
  <use xlink:href="#rep2" transform="matrix(1.3333333,0,0,-1.3333333,355.77613,608.90213)" />
  <use xlink:href="#rep2" transform="matrix(1.3333333,0,0,-1.3333333,-26.328133,393.00133)" />
  <use xlink:href="#rep2" transform="matrix(1.3333333,0,0,-1.3333333,102.3924,611.258)" />
  <use xlink:href="#rep2" transform="matrix(1.3333333,0,0,-1.3333333,45.627333,530.52093)" />
  <use xlink:href="#rep2" transform="matrix(1.3333333,0,0,-1.3333333,21.637867,506.52693)" />
  <use xlink:href="#rep2" transform="matrix(1.3333333,0,0,-1.3333333,-28.684,628.8216)" />
  <use xlink:href="#rep2" transform="matrix(1.3333333,0,0,-1.3333333,426.0132,137.27893)" />
  <use xlink:href="#rep2" transform="matrix(1.3333333,0,0,-1.3333333,251.02787,480.1816)" />
  <use xlink:href="#rep2" transform="matrix(1.3333333,0,0,-1.3333333,47.9832,360.23013)" />
  <use xlink:href="#rep2" transform="matrix(1.3333333,0,0,-1.3333333,-2.3558667,482.53747)" />
  <use xlink:href="#rep2" transform="matrix(1.3333333,0,0,-1.3333333,41.557333,157.1812)" />
  <use xlink:href="#rep3" transform="matrix(1.3333333,0,0,-1.3333333,655.40747,-2.5790667)" />
  <use xlink:href="#rep3" transform="matrix(1.3333333,0,0,-1.3333333,631.418,-26.568667)" />
  <use xlink:href="#rep3" transform="matrix(1.3333333,0,0,-1.3333333,533.0956,-17.7868)" />
  <use xlink:href="#rep3" transform="matrix(1.3333333,0,0,-1.3333333,509.10627,-41.776267)" />
  <use xlink:href="#rep3" transform="matrix(1.3333333,0,0,-1.3333333,581.07893,95.725867)" />
  <use xlink:href="#rep3" transform="matrix(1.3333333,0,0,-1.3333333,402.0236,-0.24053333)" />
  <use xlink:href="#rep3" transform="matrix(1.3333333,0,0,-1.3333333,378.03427,-24.212667)" />
  <use xlink:href="#rep3" transform="matrix(1.3333333,0,0,-1.3333333,246.95787,-6.6664)" />
  <use xlink:href="#rep3" transform="matrix(1.3333333,0,0,-1.3333333,661.83333,200.46987)" />
  <use xlink:href="#rep3" transform="matrix(1.3333333,0,0,-1.3333333,637.84387,176.4804)" />
  <use xlink:href="#rep3" transform="matrix(1.3333333,0,0,-1.3333333,530.74413,218.01613)" />
  <use xlink:href="#rep3" transform="matrix(1.3333333,0,0,-1.3333333,506.7504,194.04387)" />
  <use xlink:href="#rep3" transform="matrix(1.3333333,0,0,-1.3333333,327.69507,98.0776)" />
  <use xlink:href="#rep3" transform="matrix(1.3333333,0,0,-1.3333333,148.63987,2.1153333)" />
  <use xlink:href="#rep3" transform="matrix(1.3333333,0,0,-1.3333333,124.6504,-21.874133)" />
  <use xlink:href="#rep3" transform="matrix(1.3333333,0,0,-1.3333333,408.4496,202.80853)" />
  <use xlink:href="#rep3" transform="matrix(1.3333333,0,0,-1.3333333,196.6188,115.64533)" />
  <use xlink:href="#rep3" transform="matrix(1.3333333,0,0,-1.3333333,709.79933,313.9784)" />
  <use xlink:href="#rep3" transform="matrix(1.3333333,0,0,-1.3333333,611.49853,322.76013)" />
  <use xlink:href="#rep3" transform="matrix(1.3333333,0,0,-1.3333333,587.5048,298.77067)" />
  <use xlink:href="#rep3" transform="matrix(1.3333333,0,0,-1.3333333,456.4328,316.33427)" />
  <use xlink:href="#rep3" transform="matrix(1.3333333,0,0,-1.3333333,277.3732,220.372)" />
  <use xlink:href="#rep3" transform="matrix(1.3333333,0,0,-1.3333333,358.1148,325.116)" />
  <use xlink:href="#rep3" transform="matrix(1.3333333,0,0,-1.3333333,334.12107,301.12653)" />
  <use xlink:href="#rep3" transform="matrix(1.3333333,0,0,-1.3333333,17.5636,19.678933)" />
  <use xlink:href="#rep3" transform="matrix(1.3333333,0,0,-1.3333333,-6.4258667,-4.3105333)" />
  <use xlink:href="#rep3" transform="matrix(1.3333333,0,0,-1.3333333,146.284,237.9356)" />
  <use xlink:href="#rep3" transform="matrix(1.3333333,0,0,-1.3333333,659.47747,436.27293)" />
  <use xlink:href="#rep3" transform="matrix(1.3333333,0,0,-1.3333333,537.17,421.06533)" />
  <use xlink:href="#rep3" transform="matrix(1.3333333,0,0,-1.3333333,406.09373,438.6288)" />
  <use xlink:href="#rep3" transform="matrix(1.3333333,0,0,-1.3333333,227.0384,342.6796)" />
  <use xlink:href="#rep3" transform="matrix(1.3333333,0,0,-1.3333333,203.04893,318.69)" />
  <use xlink:href="#rep3" transform="matrix(1.3333333,0,0,-1.3333333,593.93067,501.81973)" />
  <use xlink:href="#rep3" transform="matrix(1.3333333,0,0,-1.3333333,23.989467,222.72787)" />
  <use xlink:href="#rep3" transform="matrix(1.3333333,0,0,-1.3333333,617.9244,525.8092)" />
  <use xlink:href="#rep3" transform="matrix(1.3333333,0,0,-1.3333333,486.84813,543.37253)" />
  <use xlink:href="#rep3" transform="matrix(1.3333333,0,0,-1.3333333,462.85867,519.3832)" />
  <use xlink:href="#rep3" transform="matrix(1.3333333,0,0,-1.3333333,355.77613,560.936)" />
  <use xlink:href="#rep3" transform="matrix(1.3333333,0,0,-1.3333333,331.7824,536.9468)" />
  <use xlink:href="#rep3" transform="matrix(1.3333333,0,0,-1.3333333,152.72707,440.98467)" />
  <use xlink:href="#rep3" transform="matrix(1.3333333,0,0,-1.3333333,233.4644,545.72867)" />
  <use xlink:href="#rep3" transform="matrix(1.3333333,0,0,-1.3333333,102.3924,563.2748)" />
  <use xlink:href="#rep3" transform="matrix(1.3333333,0,0,-1.3333333,557.08933,6.2026667)" />
  <use xlink:href="#rep3" transform="matrix(1.3333333,0,0,-1.3333333,685.80987,224.44213)" />
  <use xlink:href="#rep3" transform="matrix(1.3333333,0,0,-1.3333333,432.43893,226.798)" />
  <use xlink:href="#rep3" transform="matrix(1.3333333,0,0,-1.3333333,172.62933,26.109067)" />
  <use xlink:href="#rep3" transform="matrix(1.3333333,0,0,-1.3333333,635.488,346.75387)" />
  <use xlink:href="#rep3" transform="matrix(1.3333333,0,0,-1.3333333,382.10427,349.10973)" />
  <use xlink:href="#rep3" transform="matrix(1.3333333,0,0,-1.3333333,641.91387,549.7984)" />
  <use xlink:href="#rep3" transform="matrix(1.3333333,0,0,-1.3333333,257.45387,569.7008)" />
  <use xlink:href="#rep4" transform="matrix(1.3333333,0,0,-1.3333333,557.08933,30.1792)" />
  <use xlink:href="#rep4" transform="matrix(1.3333333,0,0,-1.3333333,434.79493,14.971467)" />
  <use xlink:href="#rep4" transform="matrix(1.3333333,0,0,-1.3333333,426.0132,47.742667)" />
  <use xlink:href="#rep4" transform="matrix(1.3333333,0,0,-1.3333333,303.7056,32.534933)" />
  <use xlink:href="#rep4" transform="matrix(1.3333333,0,0,-1.3333333,384.46013,137.27893)" />
  <use xlink:href="#rep4" transform="matrix(1.3333333,0,0,-1.3333333,563.51533,233.22387)" />
  <use xlink:href="#rep4" transform="matrix(1.3333333,0,0,-1.3333333,172.62933,50.098533)" />
  <use xlink:href="#rep4" transform="matrix(1.3333333,0,0,-1.3333333,554.73347,265.99933)" />
  <use xlink:href="#rep4" transform="matrix(1.3333333,0,0,-1.3333333,432.43893,250.78747)" />
  <use xlink:href="#rep4" transform="matrix(1.3333333,0,0,-1.3333333,253.38373,154.84253)" />
  <use xlink:href="#rep4" transform="matrix(1.3333333,0,0,-1.3333333,50.339067,34.890933)" />
  <use xlink:href="#rep4" transform="matrix(1.3333333,0,0,-1.3333333,513.17627,355.5356)" />
  <use xlink:href="#rep4" transform="matrix(1.3333333,0,0,-1.3333333,122.31173,172.38893)" />
  <use xlink:href="#rep4" transform="matrix(1.3333333,0,0,-1.3333333,41.557333,67.662133)" />
  <use xlink:href="#rep4" transform="matrix(1.3333333,0,0,-1.3333333,635.488,370.74333)" />
  <use xlink:href="#rep4" transform="matrix(1.3333333,0,0,-1.3333333,382.10427,373.0992)" />
  <use xlink:href="#rep4" transform="matrix(1.3333333,0,0,-1.3333333,179.0552,253.14333)" />
  <use xlink:href="#rep4" transform="matrix(1.3333333,0,0,-1.3333333,259.80973,357.89147)" />
  <use xlink:href="#rep4" transform="matrix(1.3333333,0,0,-1.3333333,170.27347,285.9188)" />
  <use xlink:href="#rep4" transform="matrix(1.3333333,0,0,-1.3333333,0,157.1812)" />
  <use xlink:href="#rep4" transform="matrix(1.3333333,0,0,-1.3333333,251.02787,390.64547)" />
  <use xlink:href="#rep4" transform="matrix(1.3333333,0,0,-1.3333333,47.9832,270.71107)" />
  <use xlink:href="#rep4" transform="matrix(1.3333333,0,0,-1.3333333,128.73773,375.43787)" />
  <use xlink:href="#rep4" transform="matrix(1.3333333,0,0,-1.3333333,519.62373,558.58027)" />
  <use xlink:href="#rep4" transform="matrix(1.3333333,0,0,-1.3333333,209.47493,480.1816)" />
  <use xlink:href="#rep4" transform="matrix(1.3333333,0,0,-1.3333333,641.91387,573.7924)" />
  <use xlink:href="#rep4" transform="matrix(1.3333333,0,0,-1.3333333,510.8376,591.33853)" />
  <use xlink:href="#rep4" transform="matrix(1.3333333,0,0,-1.3333333,388.53013,576.14373)" />
  <use xlink:href="#rep4" transform="matrix(1.3333333,0,0,-1.3333333,6.4258667,360.23013)" />
  <use xlink:href="#rep4" transform="matrix(1.3333333,0,0,-1.3333333,379.74827,608.90213)" />
  <use xlink:href="#rep4" transform="matrix(1.3333333,0,0,-1.3333333,257.45387,593.6944)" />
  <use xlink:href="#rep4" transform="matrix(1.3333333,0,0,-1.3333333,78.398533,497.7452)" />
  <use xlink:href="#rep4" transform="matrix(1.3333333,0,0,-1.3333333,-2.3558667,393.00133)" />
  <use xlink:href="#rep4" transform="matrix(1.3333333,0,0,-1.3333333,-43.8916,482.53747)" />
  <use xlink:href="#rep4" transform="matrix(1.3333333,0,0,-1.3333333,4.07,596.05027)" />
  <use xlink:href="#rep4" transform="matrix(1.3333333,0,0,-1.3333333,-52.673467,515.3088)" />
  <use xlink:href="#rep4" transform="matrix(1.3333333,0,0,-1.3333333,187.83707,220.372)" />
  <use xlink:href="#rep4" transform="matrix(1.3333333,0,0,-1.3333333,56.765067,237.9356)" />
  <use xlink:href="#rep4" transform="matrix(1.3333333,0,0,-1.3333333,12.856133,563.2748)" />
  <use xlink:href="#rep5" transform="matrix(1.3333333,0,0,-1.3333333,512.3192,83.726933)" />
  <use xlink:href="#rep5" transform="matrix(1.3333333,0,0,-1.3333333,414.0184,92.5088)" />
  <use xlink:href="#rep5" transform="matrix(1.3333333,0,0,-1.3333333,691.3744,179.69333)" />
  <use xlink:href="#rep5" transform="matrix(1.3333333,0,0,-1.3333333,593.0736,188.47507)" />
  <use xlink:href="#rep5" transform="matrix(1.3333333,0,0,-1.3333333,560.3024,197.25693)" />
  <use xlink:href="#rep5" transform="matrix(1.3333333,0,0,-1.3333333,381.2472,101.29467)" />
  <use xlink:href="#rep5" transform="matrix(1.3333333,0,0,-1.3333333,267.7344,5.3284)" />
  <use xlink:href="#rep5" transform="matrix(1.3333333,0,0,-1.3333333,462.0016,206.02147)" />
  <use xlink:href="#rep5" transform="matrix(1.3333333,0,0,-1.3333333,258.95267,86.0828)" />
  <use xlink:href="#rep5" transform="matrix(1.3333333,0,0,-1.3333333,339.68987,190.81373)" />
  <use xlink:href="#rep5" transform="matrix(1.3333333,0,0,-1.3333333,641.0568,301.9836)" />
  <use xlink:href="#rep5" transform="matrix(1.3333333,0,0,-1.3333333,387.67307,304.33947)" />
  <use xlink:href="#rep5" transform="matrix(1.3333333,0,0,-1.3333333,208.61787,208.37733)" />
  <use xlink:href="#rep5" transform="matrix(1.3333333,0,0,-1.3333333,127.86333,103.6464)" />
  <use xlink:href="#rep5" transform="matrix(1.3333333,0,0,-1.3333333,289.37227,313.1212)" />
  <use xlink:href="#rep5" transform="matrix(1.3333333,0,0,-1.3333333,590.71773,424.27813)" />
  <use xlink:href="#rep5" transform="matrix(1.3333333,0,0,-1.3333333,468.42747,409.06613)" />
  <use xlink:href="#rep5" transform="matrix(1.3333333,0,0,-1.3333333,256.59667,321.90307)" />
  <use xlink:href="#rep5" transform="matrix(1.3333333,0,0,-1.3333333,29.558267,112.4324)" />
  <use xlink:href="#rep5" transform="matrix(1.3333333,0,0,-1.3333333,337.33387,426.634)" />
  <use xlink:href="#rep5" transform="matrix(1.3333333,0,0,-1.3333333,77.541467,225.94093)" />
  <use xlink:href="#rep5" transform="matrix(1.3333333,0,0,-1.3333333,-3.2129333,121.21413)" />
  <use xlink:href="#rep5" transform="matrix(1.3333333,0,0,-1.3333333,549.16467,513.81427)" />
  <use xlink:href="#rep5" transform="matrix(1.3333333,0,0,-1.3333333,239.0332,435.41573)" />
  <use xlink:href="#rep5" transform="matrix(1.3333333,0,0,-1.3333333,516.4064,522.59613)" />
  <use xlink:href="#rep5" transform="matrix(1.3333333,0,0,-1.3333333,418.0884,531.37787)" />
  <use xlink:href="#rep5" transform="matrix(1.3333333,0,0,-1.3333333,385.3172,540.15973)" />
  <use xlink:href="#rep5" transform="matrix(1.3333333,0,0,-1.3333333,206.262,444.19747)" />
  <use xlink:href="#rep5" transform="matrix(1.3333333,0,0,-1.3333333,287.0164,548.94147)" />
  <use xlink:href="#rep5" transform="matrix(1.3333333,0,0,-1.3333333,35.988533,315.47707)" />
  <use xlink:href="#rep5" transform="matrix(1.3333333,0,0,-1.3333333,597.148,627.32267)" />
  <use xlink:href="#rep5" transform="matrix(1.3333333,0,0,-1.3333333,498.8428,636.10453)" />
  <use xlink:href="#rep5" transform="matrix(1.3333333,0,0,-1.3333333,164.72187,533.73373)" />
  <use xlink:href="#rep5" transform="matrix(1.3333333,0,0,-1.3333333,83.967333,428.98987)" />
  <use xlink:href="#rep5" transform="matrix(1.3333333,0,0,-1.3333333,3.2129333,324.25893)" />
  <use xlink:href="#rep5" transform="matrix(1.3333333,0,0,-1.3333333,466.0716,644.88627)" />
  <use xlink:href="#rep5" transform="matrix(1.3333333,0,0,-1.3333333,212.68787,647.24213)" />
  <use xlink:href="#rep5" transform="matrix(1.3333333,0,0,-1.3333333,114.38707,656.02387)" />
  <use xlink:href="#rep5" transform="matrix(1.3333333,0,0,-1.3333333,33.632667,551.28)" />
  <use xlink:href="#rep5" transform="matrix(1.3333333,0,0,-1.3333333,81.611467,664.80573)" />
  <use xlink:href="#rep5" transform="matrix(1.3333333,0,0,-1.3333333,348.4716,110.07653)" />
  <use xlink:href="#rep5" transform="matrix(1.3333333,0,0,-1.3333333,429.22613,214.8032)" />
  <use xlink:href="#rep5" transform="matrix(1.3333333,0,0,-1.3333333,557.94653,433.05987)" />
  <use xlink:href="#rep5" transform="matrix(1.3333333,0,0,-1.3333333,44.770267,234.72267)" />
  <use xlink:href="#rep5" transform="matrix(1.3333333,0,0,-1.3333333,173.4864,452.97933)" />
  <use xlink:href="#rep5" transform="matrix(1.3333333,0,0,-1.3333333,254.2408,557.70587)" />
  <use xlink:href="#rep6" transform="matrix(1.3333333,0,0,-1.3333333,23.988933,222.7288)" />
  <use xlink:href="#rep6" transform="matrix(1.3333333,0,0,-1.3333333,327.69453,98.0784)" />
  <use xlink:href="#rep6" transform="matrix(1.3333333,0,0,-1.3333333,408.44907,202.8224)" />
  <use xlink:href="#rep6" transform="matrix(1.3333333,0,0,-1.3333333,537.16947,421.06173)" />
  <use xlink:href="#rep6" transform="matrix(1.3333333,0,0,-1.3333333,233.46387,545.72947)" />
  <use xlink:href="#rep6" transform="matrix(1.3333333,0,0,-1.3333333,152.71627,440.9828)" />
  <use xlink:href="#rep7" transform="matrix(1.3333333,0,0,-1.3333333,655.38987,45.390667)" />
  <use xlink:href="#rep7" transform="matrix(1.3333333,0,0,-1.3333333,530.74373,265.99907)" />
  <use xlink:href="#rep7" transform="matrix(1.3333333,0,0,-1.3333333,146.28373,285.9184)" />
  <use xlink:href="#rep7" transform="matrix(1.3333333,0,0,-1.3333333,659.47707,484.2556)" />
  <use xlink:href="#rep7" transform="matrix(1.3333333,0,0,-1.3333333,355.75853,608.90173)" />
  <use xlink:href="#rep8" transform="matrix(1.3333333,0,0,-1.3333333,41.557333,133.20893)" />
  <use xlink:href="#rep8" transform="matrix(1.3333333,0,0,-1.3333333,426.0132,113.28947)" />
  <use xlink:href="#rep8" transform="matrix(1.3333333,0,0,-1.3333333,47.9832,336.2536)" />
  <use xlink:href="#rep8" transform="matrix(1.3333333,0,0,-1.3333333,-2.3558667,458.54827)" />
  <use xlink:href="#rep8" transform="matrix(1.3333333,0,0,-1.3333333,251.02787,456.1924)" />
  <use xlink:href="#rep8" transform="matrix(1.3333333,0,0,-1.3333333,510.8376,656.88533)" />
  <use xlink:href="#rep9" transform="matrix(1.3333333,0,0,-1.3333333,172.62933,50.098533)" />
  <use xlink:href="#rep9" transform="matrix(1.3333333,0,0,-1.3333333,557.08933,30.1792)" />
  <use xlink:href="#rep9" transform="matrix(1.3333333,0,0,-1.3333333,432.43893,250.78747)" />
  <use xlink:href="#rep9" transform="matrix(1.3333333,0,0,-1.3333333,685.80987,248.43573)" />
  <use xlink:href="#rep9" transform="matrix(1.3333333,0,0,-1.3333333,635.488,370.74333)" />
  <use xlink:href="#rep9" transform="matrix(1.3333333,0,0,-1.3333333,382.10427,373.0992)" />
  <use xlink:href="#rep9" transform="matrix(1.3333333,0,0,-1.3333333,257.45387,593.6944)" />
  <use xlink:href="#rep9" transform="matrix(1.3333333,0,0,-1.3333333,641.91387,573.7924)" />
  <use xlink:href="#rep10" transform="matrix(1.3333333,0,0,-1.3333333,77.545467,225.94053)" />
  <use xlink:href="#rep10" transform="matrix(1.3333333,0,0,-1.3333333,208.61747,208.37693)" />
  <use xlink:href="#rep10" transform="matrix(1.3333333,0,0,-1.3333333,33.632267,551.27973)" />
  <use xlink:href="#rep11" transform="matrix(1.3333333,0,0,-1.3333333,346.13067,280.33973)" />
  <use xlink:href="#rep11" transform="matrix(1.3333333,0,0,-1.3333333,518.7428,173.2572)" />
  <use xlink:href="#rep11" transform="matrix(1.3333333,0,0,-1.3333333,649.8364,155.6936)" />
  <use xlink:href="#rep11" transform="matrix(1.3333333,0,0,-1.3333333,605.9232,481.05)" />
  <use xlink:href="#rep11" transform="matrix(1.3333333,0,0,-1.3333333,474.85107,498.5964)" />
  <use xlink:href="#rep11" transform="matrix(1.3333333,0,0,-1.3333333,343.7748,516.16)" />
  <use xlink:href="#rep11" transform="matrix(1.3333333,0,0,-1.3333333,171.14547,623.264)" />
</svg>
